<svg id="Layer_1" data-name="Layer 1" xmlns="http://www.w3.org/2000/svg" viewBox="0 0 393.56 395.28"><defs><style>.cls-1{fill:#e6e7e8;}.cls-2{fill:#58595b;}</style></defs><path class="cls-1" d="M331.56,222.33c1,8.53-1.37,42.26-5.84,57-1.67,5.52-8.83,27.92-13.25,41.74-5.87,9.07-19.65,29.95-23,33.31-7.36,7.35-21.32,17.7-30.38,21.39a57.93,57.93,0,0,0-9.47,5.4c-6.45,4.23-13.77,9-25.92,10.57-19,2.42-36.85-4.42-46.45-8.09-11.53-4.4-18.69-9.34-26.85-15.34a96.71,96.71,0,0,0-12.56-7.4c-5.49-2.89-11.16-5.87-16.29-10.13-8.2-6.82-25.63-27.36-28.37-30.6-1.75-3.18-6-11.33-7.59-18.87-3.54-16.54-1-16.48,1.93-31.6s8-50.84,6-57-2.75-12.36-5.84-19.92-7.22-30.23-5.84-33S93.5,134.39,93.5,134.39s30.23,1.37,59.77,2.4,90.69-4.12,120.92-4.12,64.93,21.5,64.93,21.5S330.19,211,331.56,222.33Z" transform="translate(-3.14 -2.39)"/><path class="cls-2" d="M194,216.19c-2.27-9.65-6.43-18.37-32.1-19.05-14.16-.45-33.89,7.15-34.9,7.54-1.39.52-11.8,5.73-11.27,7.12s11.59-2.52,13-3.06c.17-.06,7.86-2,19.35-4.48.77,4.72,3.77,14,15.54,14,9.85,0,11.16-9.44,11.18-14.26,11.42,2.62,12.77,8.31,14,13.47l0,.18a6.75,6.75,0,0,0,3.48,5.48c1.45-.34,2.45-3,1.76-6.71Z" transform="translate(-3.14 -2.39)"/><path class="cls-2" d="M305.58,219.62c-.79-.69-15.93-14.59-42.49-13.55a12.86,12.86,0,0,0-9.63,4.38c-4.88,5.66-3.92,14.71-3.93,15.09-.09,4.07,2.12,6,2.22,6,1.48-.15,3.16-3.07,3.13-6.52,0-2.83-.69-7.14,2.67-11a7.17,7.17,0,0,1,4.59-2.37c-.19,5.62.82,18.33,13.94,18.3,9.06,0,11.76-9.08,12.55-13.8,10.65,4.8,12,5.68,14.42,7,1.31.7,9.33,6.56,10.3,5.44S306.7,220.6,305.58,219.62Z" transform="translate(-3.14 -2.39)"/><path class="cls-2" d="M210.3,279.53c-2.82,1-11.68,5-13.75,0s2.41-8.07,5.67-7.21S215.11,277.75,210.3,279.53Z" transform="translate(-3.14 -2.39)"/><path class="cls-2" d="M240.18,284.68c-3.87.83-12.19-5.15-4.12-6.7s11.17.69,10.48,2.24S245,283.65,240.18,284.68Z" transform="translate(-3.14 -2.39)"/><path class="cls-2" d="M167.18,323.85c2.24-.52,29.72-12.37,35.73-11.86s11.51,5,13.57,5,10.13-2.92,14.94-1.21,24.74,16.32,24.74,16.32-22.41,12.57-42.38,10.46C192.26,340.27,167.18,323.85,167.18,323.85Z" transform="translate(-3.14 -2.39)"/><path class="cls-2" d="M393.4,224.05C386.18,208.59,363.17,185,363.17,185l3.43-6.29s13.4,8.25,17.52-3.09c1.9-5.21-8.59-16.14-8.59-16.14s1-20.27,1-28.17,7.57-15.76,5.16-34.65S345.41,47.84,302,31C231.59,3.63,176.63-4.75,127.16,8.65,100,16,68.07,35.79,45.74,55,33.3,65.75,27.54,86.29,26.16,91.45s-5.49,59.43-3.09,70.08,13.06,21.64,13.06,21.64-18.55,10-24.39,20.27S-1,251.88,6.24,264.59s42.25,22.33,44,34C51.14,305,36.5,317.73,43,321.27c15.11,8.24,17.52,19.24,31.6,19.24,6.52,0,13.09-8.66,16.65-14.25,5.72,6.69,19.5,22.56,26.86,28.68,5.56,4.63,11.49,7.75,17.23,10.76a93.73,93.73,0,0,1,11.87,7c8.21,6,16,11.39,28.12,16,8.56,3.27,23.41,9,40.19,9a70.47,70.47,0,0,0,8.86-.55c13.38-1.7,21.59-7.08,28.19-11.41a52.23,52.23,0,0,1,8.55-4.91c10-4.07,24.46-14.89,32.15-22.58,3.74-3.74,16.52-23.12,22-31.58,4.36-3.91,9.71-8.88,11.8-11.54,3.77-4.81,11.68-23.36,11.68-23.36s27.27,5.14,40.19-4.47C396.07,274.55,400.61,239.51,393.4,224.05Zm-61.84-1.72c1,8.53-1.37,42.26-5.84,57-1.67,5.52-8.83,27.92-13.25,41.74-5.87,9.07-19.65,29.95-23,33.31-7.36,7.35-21.32,17.7-30.38,21.39a57.93,57.93,0,0,0-9.47,5.4c-6.45,4.23-13.77,9-25.92,10.57-19,2.42-36.85-4.42-46.45-8.09-11.53-4.4-18.69-9.34-26.85-15.34a96.71,96.71,0,0,0-12.56-7.4c-5.49-2.89-11.16-5.87-16.29-10.13-8.2-6.82-25.63-27.36-28.37-30.6-1.75-3.18-6-11.33-7.59-18.87-3.54-16.54-1-16.48,1.93-31.6s8-50.84,6-57-2.75-12.36-5.84-19.92-7.22-30.23-5.84-33S93.5,134.39,93.5,134.39s30.23,1.37,59.77,2.4,90.69-4.12,120.92-4.12,64.93,21.5,64.93,21.5S330.19,211,331.56,222.33Z" transform="translate(-3.14 -2.39)"/><path class="cls-1" d="M352.23,134.08c-.29-.28-24.08-21-46-34.43-21.7-13.31-53.33-9.53-82.15-9.08C195.5,91,90.32,115.37,79.89,118.7a39.7,39.7,0,0,0-16.47,10c-.89,1.19-12.47,14.36-13.67,13.47s5.66-10.43,6.54-11.62c.4-.53,10.29-11.86,22-17,45.09-19.86,101.39-34,149-36.39,29.67-1.47,58.06,0,81.1,14.17,22.38,13.74,51.68,45,52.88,46.21s6.72,8.81,5.69,9.87C366.42,148,352.75,134.59,352.23,134.08Z" transform="translate(-3.14 -2.39)"/></svg>